<svg xmlns="http://www.w3.org/2000/svg" width="1840" height="700" viewBox="0 0 1840 700" style="background:#0f1115">
<text x="40" y="42" fill="#e6e6e6" font-family="Helvetica" font-size="16">Concept dependency graph (concepts-only)</text>
<rect x="40" y="668" width="10" height="10" fill="#f9d65c" stroke="#3a4154"/>
<text x="54" y="678" fill="#e6e6e6" font-family="Helvetica" font-size="11">Primitives</text>
<rect x="180" y="668" width="10" height="10" fill="#8ecae6" stroke="#3a4154"/>
<text x="194" y="678" fill="#e6e6e6" font-family="Helvetica" font-size="11">First-order</text>
<rect x="320" y="668" width="10" height="10" fill="#90be6d" stroke="#3a4154"/>
<text x="334" y="678" fill="#e6e6e6" font-family="Helvetica" font-size="11">Mechanisms</text>
<rect x="460" y="668" width="10" height="10" fill="#f4a261" stroke="#3a4154"/>
<text x="474" y="678" fill="#e6e6e6" font-family="Helvetica" font-size="11">Accounting</text>
<rect x="600" y="668" width="10" height="10" fill="#e76f51" stroke="#3a4154"/>
<text x="614" y="678" fill="#e6e6e6" font-family="Helvetica" font-size="11">Failure</text>
<rect x="740" y="668" width="10" height="10" fill="#b5179e" stroke="#3a4154"/>
<text x="754" y="678" fill="#e6e6e6" font-family="Helvetica" font-size="11">Diagnostic</text>
<g id="edges" stroke-linecap="round" fill="none">
<path d="M 605.0,93.5 C 645.0,93.5 528.0,270.5 568.0,270.5" stroke="#3a4154" stroke-width="1.0" opacity="0.8"/>
<path d="M 605.0,92.0 C 697.0,92.0 249.9,328.0 342.0,328.0" stroke="#3a4154" stroke-width="1.0" opacity="0.8"/>
<path d="M 605.0,102.5 C 645.0,102.5 522.0,485.5 562.0,485.5" stroke="#3a4154" stroke-width="1.0" opacity="0.8"/>
<path d="M 1044.0,92.0 C 1208.2,92.0 410.9,104.0 575.0,104.0" stroke="#3a4154" stroke-width="1.0" opacity="0.8"/>
<path d="M 1044.0,93.5 C 1210.6,93.5 401.4,214.5 568.0,214.5" stroke="#3a4154" stroke-width="1.0" opacity="0.8"/>
<path d="M 1044.0,95.0 C 1210.6,95.0 401.4,269.0 568.0,269.0" stroke="#3a4154" stroke-width="1.0" opacity="0.8"/>
<path d="M 1044.0,101.0 C 1289.7,101.0 96.3,319.0 342.0,319.0" stroke="#3a4154" stroke-width="1.0" opacity="0.8"/>
<path d="M 1044.0,101.0 C 1212.7,101.0 393.3,487.0 562.0,487.0" stroke="#3a4154" stroke-width="1.0" opacity="0.8"/>
<path d="M 1044.0,101.0 C 1212.0,101.0 396.0,599.0 564.0,599.0" stroke="#3a4154" stroke-width="1.0" opacity="0.8"/>
<path d="M 1044.0,104.0 C 1084.0,104.0 975.0,260.0 1015.0,260.0" stroke="#3a4154" stroke-width="1.0" opacity="0.8"/>
<path d="M 384.0,99.5 C 424.0,99.5 308.0,208.5 348.0,208.5" stroke="#3a4154" stroke-width="1.0" opacity="0.8"/>
<path d="M 1487.0,101.0 C 1885.7,101.0 -50.6,207.0 348.0,207.0" stroke="#3a4154" stroke-width="1.0" opacity="0.8"/>
<path d="M 1487.0,102.5 C 1808.7,102.5 246.4,205.5 568.0,205.5" stroke="#3a4154" stroke-width="1.0" opacity="0.8"/>
<path d="M 1487.0,96.5 C 1652.5,96.5 848.5,211.5 1014.0,211.5" stroke="#3a4154" stroke-width="1.0" opacity="0.8"/>
<path d="M 388.0,148.0 C 428.0,148.0 312.0,272.0 352.0,272.0" stroke="#3a4154" stroke-width="1.0" opacity="0.8"/>
<path d="M 388.0,152.5 C 428.0,152.5 309.0,435.5 349.0,435.5" stroke="#3a4154" stroke-width="1.0" opacity="0.8"/>
<path d="M 1264.0,99.5 C 1330.2,99.5 1386.8,96.5 1453.0,96.5" stroke="#3a4154" stroke-width="1.0" opacity="0.8"/>
<path d="M 1264.0,102.5 C 1507.6,102.5 324.4,205.5 568.0,205.5" stroke="#3a4154" stroke-width="1.0" opacity="0.8"/>
<path d="M 1264.0,96.5 C 1509.0,96.5 319.0,603.5 564.0,603.5" stroke="#3a4154" stroke-width="1.0" opacity="0.8"/>
<path d="M 1044.0,160.0 C 1208.2,160.0 410.9,148.0 575.0,148.0" stroke="#3a4154" stroke-width="1.0" opacity="0.8"/>
<path d="M 1044.0,155.5 C 1289.7,155.5 96.3,320.5 342.0,320.5" stroke="#3a4154" stroke-width="1.0" opacity="0.8"/>
<path d="M 1044.0,155.5 C 1084.0,155.5 974.0,208.5 1014.0,208.5" stroke="#3a4154" stroke-width="1.0" opacity="0.8"/>
<path d="M 1044.0,155.5 C 1287.2,155.5 105.8,432.5 349.0,432.5" stroke="#3a4154" stroke-width="1.0" opacity="0.8"/>
<path d="M 1044.0,149.5 C 1212.0,149.5 396.0,606.5 564.0,606.5" stroke="#3a4154" stroke-width="1.0" opacity="0.8"/>
<path d="M 605.0,160.0 C 645.0,160.0 528.0,204.0 568.0,204.0" stroke="#3a4154" stroke-width="1.0" opacity="0.8"/>
<path d="M 605.0,154.0 C 645.0,154.0 522.0,490.0 562.0,490.0" stroke="#3a4154" stroke-width="1.0" opacity="0.8"/>
<path d="M 605.0,154.0 C 645.0,154.0 524.0,602.0 564.0,602.0" stroke="#3a4154" stroke-width="1.0" opacity="0.8"/>
<path d="M 612.0,204.0 C 704.4,204.0 255.6,216.0 348.0,216.0" stroke="#3a4154" stroke-width="1.0" opacity="0.8"/>
<path d="M 612.0,213.0 C 706.5,213.0 247.5,319.0 342.0,319.0" stroke="#3a4154" stroke-width="1.0" opacity="0.8"/>
<path d="M 612.0,216.0 C 652.0,216.0 524.0,596.0 564.0,596.0" stroke="#3a4154" stroke-width="1.0" opacity="0.8"/>
<path d="M 824.0,93.5 C 990.6,93.5 181.4,214.5 348.0,214.5" stroke="#3a4154" stroke-width="1.0" opacity="0.8"/>
<path d="M 824.0,96.5 C 913.6,96.5 478.4,267.5 568.0,267.5" stroke="#3a4154" stroke-width="1.0" opacity="0.8"/>
<path d="M 824.0,102.5 C 915.7,102.5 470.3,485.5 562.0,485.5" stroke="#3a4154" stroke-width="1.0" opacity="0.8"/>
<path d="M 824.0,98.0 C 912.5,98.0 482.4,546.0 571.0,546.0" stroke="#3a4154" stroke-width="1.0" opacity="0.8"/>
<path d="M 824.0,99.5 C 915.0,99.5 473.0,600.5 564.0,600.5" stroke="#3a4154" stroke-width="1.0" opacity="0.8"/>
<path d="M 824.0,155.5 C 913.6,155.5 478.4,208.5 568.0,208.5" stroke="#3a4154" stroke-width="1.0" opacity="0.8"/>
<path d="M 824.0,154.0 C 913.6,154.0 478.4,266.0 568.0,266.0" stroke="#3a4154" stroke-width="1.0" opacity="0.8"/>
<path d="M 824.0,160.0 C 915.7,160.0 470.3,484.0 562.0,484.0" stroke="#3a4154" stroke-width="1.0" opacity="0.8"/>
<path d="M 824.0,155.5 C 912.5,155.5 482.4,544.5 571.0,544.5" stroke="#3a4154" stroke-width="1.0" opacity="0.8"/>
<path d="M 824.0,160.0 C 915.0,160.0 473.0,596.0 564.0,596.0" stroke="#3a4154" stroke-width="1.0" opacity="0.8"/>
<path d="M 388.0,266.0 C 477.9,266.0 41.1,98.0 131.0,98.0" stroke="#3a4154" stroke-width="1.0" opacity="0.8"/>
<path d="M 612.0,260.0 C 706.5,260.0 247.5,328.0 342.0,328.0" stroke="#3a4154" stroke-width="1.0" opacity="0.8"/>
<path d="M 612.0,269.0 C 652.0,269.0 522.0,487.0 562.0,487.0" stroke="#3a4154" stroke-width="1.0" opacity="0.8"/>
<path d="M 604.0,317.5 C 692.2,317.5 263.8,158.5 352.0,158.5" stroke="#3a4154" stroke-width="1.0" opacity="0.8"/>
<path d="M 604.0,326.5 C 695.7,326.5 250.3,317.5 342.0,317.5" stroke="#3a4154" stroke-width="1.0" opacity="0.8"/>
<path d="M 604.0,323.5 C 644.0,323.5 522.0,488.5 562.0,488.5" stroke="#3a4154" stroke-width="1.0" opacity="0.8"/>
<path d="M 398.0,316.0 C 438.0,316.0 309.0,440.0 349.0,440.0" stroke="#3a4154" stroke-width="1.0" opacity="0.8"/>
<path d="M 1046.0,204.0 C 1290.3,204.0 103.7,216.0 348.0,216.0" stroke="#3a4154" stroke-width="1.0" opacity="0.8"/>
<path d="M 1046.0,216.0 C 1213.3,216.0 400.7,204.0 568.0,204.0" stroke="#3a4154" stroke-width="1.0" opacity="0.8"/>
<path d="M 1046.0,204.0 C 1292.4,204.0 95.6,328.0 342.0,328.0" stroke="#3a4154" stroke-width="1.0" opacity="0.8"/>
<path d="M 1046.0,204.0 C 1215.4,204.0 392.6,496.0 562.0,496.0" stroke="#3a4154" stroke-width="1.0" opacity="0.8"/>
<path d="M 1046.0,207.0 C 1366.2,207.0 -189.2,101.0 131.0,101.0" stroke="#3a4154" stroke-width="1.0" opacity="0.8"/>
<path d="M 605.0,378.0 C 693.5,378.0 263.4,154.0 352.0,154.0" stroke="#3a4154" stroke-width="1.0" opacity="0.8"/>
<path d="M 605.0,373.5 C 697.0,373.5 249.9,326.5 342.0,326.5" stroke="#3a4154" stroke-width="1.0" opacity="0.8"/>
<path d="M 605.0,384.0 C 694.6,384.0 259.4,428.0 349.0,428.0" stroke="#3a4154" stroke-width="1.0" opacity="0.8"/>
<path d="M 605.0,373.5 C 770.9,373.5 -34.9,102.5 131.0,102.5" stroke="#3a4154" stroke-width="1.0" opacity="0.8"/>
<path d="M 384.0,384.0 C 424.0,384.0 312.0,148.0 352.0,148.0" stroke="#3a4154" stroke-width="1.0" opacity="0.8"/>
<path d="M 384.0,372.0 C 424.0,372.0 312.0,272.0 352.0,272.0" stroke="#3a4154" stroke-width="1.0" opacity="0.8"/>
<path d="M 384.0,379.5 C 424.0,379.5 302.0,320.5 342.0,320.5" stroke="#3a4154" stroke-width="1.0" opacity="0.8"/>
<path d="M 384.0,376.5 C 424.0,376.5 309.0,435.5 349.0,435.5" stroke="#3a4154" stroke-width="1.0" opacity="0.8"/>
<path d="M 384.0,379.5 C 472.6,379.5 42.5,96.5 131.0,96.5" stroke="#3a4154" stroke-width="1.0" opacity="0.8"/>
<path d="M 1704.0,101.0 C 1791.8,101.0 1365.2,95.0 1453.0,95.0" stroke="#3a4154" stroke-width="1.0" opacity="0.8"/>
<path d="M 1704.0,104.0 C 2177.2,104.0 -121.2,260.0 352.0,260.0" stroke="#3a4154" stroke-width="1.0" opacity="0.8"/>
<path d="M 1704.0,101.0 C 2178.2,101.0 -125.2,431.0 349.0,431.0" stroke="#3a4154" stroke-width="1.0" opacity="0.8"/>
<path d="M 824.0,216.0 C 913.6,216.0 478.4,260.0 568.0,260.0" stroke="#3a4154" stroke-width="1.0" opacity="0.8"/>
<path d="M 824.0,208.5 C 992.7,208.5 173.3,323.5 342.0,323.5" stroke="#3a4154" stroke-width="1.0" opacity="0.8"/>
<path d="M 824.0,208.5 C 915.7,208.5 470.3,491.5 562.0,491.5" stroke="#3a4154" stroke-width="1.0" opacity="0.8"/>
<path d="M 824.0,204.0 C 912.5,204.0 482.4,552.0 571.0,552.0" stroke="#3a4154" stroke-width="1.0" opacity="0.8"/>
<path d="M 824.0,205.5 C 915.0,205.5 473.0,606.5 564.0,606.5" stroke="#3a4154" stroke-width="1.0" opacity="0.8"/>
<path d="M 391.0,434.0 C 431.0,434.0 312.0,266.0 352.0,266.0" stroke="#3a4154" stroke-width="1.0" opacity="0.8"/>
<path d="M 391.0,428.0 C 482.0,428.0 40.0,104.0 131.0,104.0" stroke="#3a4154" stroke-width="1.0" opacity="0.8"/>
<path d="M 604.0,428.0 C 644.0,428.0 535.0,384.0 575.0,384.0" stroke="#3a4154" stroke-width="1.0" opacity="0.8"/>
<path d="M 618.0,490.0 C 714.6,490.0 245.4,322.0 342.0,322.0" stroke="#3a4154" stroke-width="1.0" opacity="0.8"/>
<path d="M 618.0,493.0 C 712.1,493.0 254.9,431.0 349.0,431.0" stroke="#3a4154" stroke-width="1.0" opacity="0.8"/>
<path d="M 609.0,540.0 C 649.0,540.0 522.0,496.0 562.0,496.0" stroke="#3a4154" stroke-width="1.0" opacity="0.8"/>
<path d="M 824.0,267.5 C 990.6,267.5 181.4,208.5 348.0,208.5" stroke="#3a4154" stroke-width="1.0" opacity="0.8"/>
<path d="M 824.0,270.5 C 913.6,270.5 478.4,261.5 568.0,261.5" stroke="#3a4154" stroke-width="1.0" opacity="0.8"/>
<path d="M 824.0,263.0 C 915.7,263.0 470.3,493.0 562.0,493.0" stroke="#3a4154" stroke-width="1.0" opacity="0.8"/>
<path d="M 824.0,272.0 C 912.5,272.0 482.4,540.0 571.0,540.0" stroke="#3a4154" stroke-width="1.0" opacity="0.8"/>
<path d="M 824.0,270.5 C 915.0,270.5 473.0,597.5 564.0,597.5" stroke="#3a4154" stroke-width="1.0" opacity="0.8"/>
<path d="M 824.0,320.5 C 989.2,320.5 186.8,155.5 352.0,155.5" stroke="#3a4154" stroke-width="1.0" opacity="0.8"/>
<path d="M 824.0,326.5 C 990.6,326.5 181.4,205.5 348.0,205.5" stroke="#3a4154" stroke-width="1.0" opacity="0.8"/>
<path d="M 824.0,317.5 C 913.6,317.5 478.4,214.5 568.0,214.5" stroke="#3a4154" stroke-width="1.0" opacity="0.8"/>
<path d="M 824.0,322.0 C 992.7,322.0 173.3,322.0 342.0,322.0" stroke="#3a4154" stroke-width="1.0" opacity="0.8"/>
<path d="M 824.0,326.5 C 915.0,326.5 473.0,597.5 564.0,597.5" stroke="#3a4154" stroke-width="1.0" opacity="0.8"/>
<path d="M 616.0,603.5 C 709.8,603.5 254.2,208.5 348.0,208.5" stroke="#3a4154" stroke-width="1.0" opacity="0.8"/>
<path d="M 616.0,600.5 C 656.0,600.5 528.0,267.5 568.0,267.5" stroke="#3a4154" stroke-width="1.0" opacity="0.8"/>
<path d="M 616.0,603.5 C 656.0,603.5 522.0,488.5 562.0,488.5" stroke="#3a4154" stroke-width="1.0" opacity="0.8"/>
<path d="M 824.0,384.0 C 913.6,384.0 478.4,260.0 568.0,260.0" stroke="#3a4154" stroke-width="1.0" opacity="0.8"/>
<path d="M 824.0,376.5 C 915.7,376.5 470.3,491.5 562.0,491.5" stroke="#3a4154" stroke-width="1.0" opacity="0.8"/>
<path d="M 824.0,372.0 C 912.5,372.0 482.4,552.0 571.0,552.0" stroke="#3a4154" stroke-width="1.0" opacity="0.8"/>
<path d="M 824.0,384.0 C 915.0,384.0 473.0,596.0 564.0,596.0" stroke="#3a4154" stroke-width="1.0" opacity="0.8"/>
<path d="M 1264.0,155.5 C 1330.2,155.5 1386.8,96.5 1453.0,96.5" stroke="#3a4154" stroke-width="1.0" opacity="0.8"/>
<path d="M 1264.0,158.5 C 1507.6,158.5 324.4,205.5 568.0,205.5" stroke="#3a4154" stroke-width="1.0" opacity="0.8"/>
<path d="M 1264.0,152.5 C 1586.7,152.5 19.3,323.5 342.0,323.5" stroke="#3a4154" stroke-width="1.0" opacity="0.8"/>
<path d="M 1264.0,149.5 C 1509.0,149.5 319.0,606.5 564.0,606.5" stroke="#3a4154" stroke-width="1.0" opacity="0.8"/>
<path d="M 1045.0,266.0 C 1291.0,266.0 96.0,322.0 342.0,322.0" stroke="#3a4154" stroke-width="1.0" opacity="0.8"/>
<path d="M 1045.0,263.0 C 1214.0,263.0 393.0,493.0 562.0,493.0" stroke="#3a4154" stroke-width="1.0" opacity="0.8"/>
</g>
<g id="nodes">
<circle cx="590.0" cy="98.0" r="15.0" fill="#8ecae6" stroke="#3a4154" stroke-width="1.0"/>
<text x="590.0" y="127.0" fill="#e6e6e6" font-family="Helvetica" font-size="11" text-anchor="middle">absorption</text>
<circle cx="1030.0" cy="98.0" r="14.0" fill="#f4a261" stroke="#3a4154" stroke-width="1.0"/>
<text x="1030.0" y="126.0" fill="#e6e6e6" font-family="Helvetica" font-size="11" text-anchor="middle">accounting-failure</text>
<circle cx="370.0" cy="98.0" r="14.0" fill="#f9d65c" stroke="#3a4154" stroke-width="1.0"/>
<text x="370.0" y="126.0" fill="#e6e6e6" font-family="Helvetica" font-size="11" text-anchor="middle">accumulation</text>
<circle cx="1470.0" cy="98.0" r="17.0" fill="#b5179e" stroke="#3a4154" stroke-width="1.0"/>
<text x="1470.0" y="129.0" fill="#e6e6e6" font-family="Helvetica" font-size="11" text-anchor="middle">admissibility</text>
<circle cx="370.0" cy="154.0" r="18.0" fill="#f9d65c" stroke="#3a4154" stroke-width="1.0"/>
<text x="370.0" y="186.0" fill="#e6e6e6" font-family="Helvetica" font-size="11" text-anchor="middle">asymmetry</text>
<circle cx="1250.0" cy="98.0" r="14.0" fill="#e76f51" stroke="#3a4154" stroke-width="1.0"/>
<text x="1250.0" y="126.0" fill="#e6e6e6" font-family="Helvetica" font-size="11" text-anchor="middle">brittleness</text>
<circle cx="1030.0" cy="154.0" r="14.0" fill="#f4a261" stroke="#3a4154" stroke-width="1.0"/>
<text x="1030.0" y="182.0" fill="#e6e6e6" font-family="Helvetica" font-size="11" text-anchor="middle">collapse-surface</text>
<circle cx="370.0" cy="210.0" r="22.0" fill="#f9d65c" stroke="#3a4154" stroke-width="1.0"/>
<text x="370.0" y="246.0" fill="#e6e6e6" font-family="Helvetica" font-size="11" text-anchor="middle">constraint</text>
<circle cx="590.0" cy="154.0" r="15.0" fill="#8ecae6" stroke="#3a4154" stroke-width="1.0"/>
<text x="590.0" y="183.0" fill="#e6e6e6" font-family="Helvetica" font-size="11" text-anchor="middle">constraint-accumulation</text>
<rect x="565.8" y="192.4" width="48.4" height="35.2" rx="8" fill="#8ecae6" stroke="#e6e6e6" stroke-width="2.2"/>
<text x="590.0" y="246.0" fill="#e6e6e6" font-family="Helvetica" font-size="11" text-anchor="middle">constraint-load (hub: Aggregation hub)</text>
<circle cx="810.0" cy="98.0" r="14.0" fill="#90be6d" stroke="#3a4154" stroke-width="1.0"/>
<text x="810.0" y="126.0" fill="#e6e6e6" font-family="Helvetica" font-size="11" text-anchor="middle">containment</text>
<circle cx="810.0" cy="154.0" r="14.0" fill="#90be6d" stroke="#3a4154" stroke-width="1.0"/>
<text x="810.0" y="182.0" fill="#e6e6e6" font-family="Helvetica" font-size="11" text-anchor="middle">deprecation</text>
<circle cx="370.0" cy="266.0" r="18.0" fill="#f9d65c" stroke="#3a4154" stroke-width="1.0"/>
<text x="370.0" y="298.0" fill="#e6e6e6" font-family="Helvetica" font-size="11" text-anchor="middle">difference</text>
<circle cx="590.0" cy="266.0" r="22.0" fill="#8ecae6" stroke="#3a4154" stroke-width="1.0"/>
<text x="590.0" y="302.0" fill="#e6e6e6" font-family="Helvetica" font-size="11" text-anchor="middle">displacement</text>
<circle cx="590.0" cy="322.0" r="14.0" fill="#8ecae6" stroke="#3a4154" stroke-width="1.0"/>
<text x="590.0" y="350.0" fill="#e6e6e6" font-family="Helvetica" font-size="11" text-anchor="middle">erasure-asymmetry</text>
<circle cx="370.0" cy="322.0" r="28.0" fill="#f9d65c" stroke="#e6e6e6" stroke-width="2.2"/>
<circle cx="370.0" cy="322.0" r="23.0" fill="none" stroke="#e6e6e6" stroke-width="2.2"/>
<text x="370.0" y="364.0" fill="#e6e6e6" font-family="Helvetica" font-size="11" text-anchor="middle">erasure-cost (hub: Primitive hub)</text>
<circle cx="1030.0" cy="210.0" r="16.0" fill="#f4a261" stroke="#3a4154" stroke-width="1.0"/>
<text x="1030.0" y="240.0" fill="#e6e6e6" font-family="Helvetica" font-size="11" text-anchor="middle">feasible-set</text>
<circle cx="590.0" cy="378.0" r="15.0" fill="#8ecae6" stroke="#3a4154" stroke-width="1.0"/>
<text x="590.0" y="407.0" fill="#e6e6e6" font-family="Helvetica" font-size="11" text-anchor="middle">irreversibility</text>
<circle cx="370.0" cy="378.0" r="14.0" fill="#f9d65c" stroke="#3a4154" stroke-width="1.0"/>
<text x="370.0" y="406.0" fill="#e6e6e6" font-family="Helvetica" font-size="11" text-anchor="middle">irreversibility-quanta</text>
<circle cx="1690.0" cy="98.0" r="14.0" fill="#b5179e" stroke="#3a4154" stroke-width="1.0"/>
<text x="1690.0" y="126.0" fill="#e6e6e6" font-family="Helvetica" font-size="11" text-anchor="middle">lens</text>
<circle cx="810.0" cy="210.0" r="14.0" fill="#90be6d" stroke="#3a4154" stroke-width="1.0"/>
<text x="810.0" y="238.0" fill="#e6e6e6" font-family="Helvetica" font-size="11" text-anchor="middle">migration</text>
<circle cx="370.0" cy="434.0" r="21.0" fill="#f9d65c" stroke="#3a4154" stroke-width="1.0"/>
<text x="370.0" y="469.0" fill="#e6e6e6" font-family="Helvetica" font-size="11" text-anchor="middle">persistence</text>
<circle cx="590.0" cy="434.0" r="14.0" fill="#8ecae6" stroke="#3a4154" stroke-width="1.0"/>
<text x="590.0" y="462.0" fill="#e6e6e6" font-family="Helvetica" font-size="11" text-anchor="middle">persistence-gradient</text>
<circle cx="590.0" cy="490.0" r="28.0" fill="#8ecae6" stroke="#3a4154" stroke-width="1.0"/>
<text x="590.0" y="532.0" fill="#e6e6e6" font-family="Helvetica" font-size="11" text-anchor="middle">persistent-difference</text>
<circle cx="590.0" cy="546.0" r="19.0" fill="#8ecae6" stroke="#3a4154" stroke-width="1.0"/>
<text x="590.0" y="579.0" fill="#e6e6e6" font-family="Helvetica" font-size="11" text-anchor="middle">propagation</text>
<circle cx="810.0" cy="266.0" r="14.0" fill="#90be6d" stroke="#3a4154" stroke-width="1.0"/>
<text x="810.0" y="294.0" fill="#e6e6e6" font-family="Helvetica" font-size="11" text-anchor="middle">quarantine</text>
<circle cx="810.0" cy="322.0" r="14.0" fill="#90be6d" stroke="#3a4154" stroke-width="1.0"/>
<text x="810.0" y="350.0" fill="#e6e6e6" font-family="Helvetica" font-size="11" text-anchor="middle">ratchet</text>
<polygon points="618.8,613.9 601.9,630.8 578.1,630.8 561.2,613.9 561.2,590.1 578.1,573.2 601.9,573.2 618.8,590.1" fill="#8ecae6" stroke="#e6e6e6" stroke-width="2.2"/>
<text x="590.0" y="642.0" fill="#e6e6e6" font-family="Helvetica" font-size="11" text-anchor="middle">residual (hub: Mechanism-output hub)</text>
<circle cx="810.0" cy="378.0" r="14.0" fill="#90be6d" stroke="#3a4154" stroke-width="1.0"/>
<text x="810.0" y="406.0" fill="#e6e6e6" font-family="Helvetica" font-size="11" text-anchor="middle">rollback</text>
<circle cx="1250.0" cy="154.0" r="14.0" fill="#e76f51" stroke="#3a4154" stroke-width="1.0"/>
<text x="1250.0" y="182.0" fill="#e6e6e6" font-family="Helvetica" font-size="11" text-anchor="middle">saturation</text>
<circle cx="1030.0" cy="266.0" r="15.0" fill="#f4a261" stroke="#3a4154" stroke-width="1.0"/>
<text x="1030.0" y="295.0" fill="#e6e6e6" font-family="Helvetica" font-size="11" text-anchor="middle">tracking-mechanism</text>
<circle cx="150.0" cy="98.0" r="19.0" fill="#f9d65c" stroke="#3a4154" stroke-width="1.0"/>
<text x="150.0" y="131.0" fill="#e6e6e6" font-family="Helvetica" font-size="11" text-anchor="middle">transformation-space</text>
</g>
</svg>
